<svg width="500" height="420" viewBox="0 0 500 420" fill="none" xmlns="http://www.w3.org/2000/svg">
<g clip-path="url(#clip0_830_2433)">
<path d="M64.4996 260.4H59.0996V254.9H60.9996V258.4H64.4996V260.4Z" fill="#F3F3E4"/>
<path d="M61 246.2H59V237.5H61V246.2ZM61 228.9H59V220.2H61V228.9ZM61 211.6H59V202.9H61V211.6ZM61 194.2H59V185.5H61V194.2ZM61 176.9H59V168.2H61V176.9ZM61 159.6H59V150.9H61V159.6ZM61 142.2H59V133.5H61V142.2ZM61 124.9H59V116.2H61V124.9ZM61 107.6H59V98.9001H61V107.6ZM61 90.3001H59V81.6001H61V90.3001Z" fill="#F3F3E4"/>
<path d="M60.9996 72.9H59.0996V67.9L63.0996 65L64.2996 66.6L60.9996 68.9V72.9Z" fill="#F3F3E4"/>
<path d="M71.7 61.3001L70.5 59.7001L77.9 54.4001L79.1 56.0001L71.7 61.3001ZM86.5 50.7001L85.3 49.0001L92.7 43.7001L93.9 45.3001L86.5 50.7001ZM101.3 40.0001L100.1 38.4001L107.5 33.1001L108.7 34.7001L101.3 40.0001ZM116.1 29.4001L114.9 27.8001L122.3 22.5001L123.5 24.1001L116.1 29.4001ZM130.9 18.7001L129.7 17.1001L137.1 11.8001L138.3 13.4001L130.9 18.7001ZM145.7 8.1001L144.5 6.5001L151.9 1.2001L153.1 2.8001L145.7 8.1001ZM425.8 2.6001H416.7V0.600098H425.8V2.6001ZM407.6 2.6001H398.5V0.600098H407.6V2.6001ZM389.3 2.6001H380.2V0.600098H389.3V2.6001ZM371.1 2.6001H362V0.600098H371.1V2.6001ZM352.9 2.6001H343.8V0.600098H352.9V2.6001ZM334.7 2.6001H325.6V0.600098H334.7V2.6001ZM316.4 2.6001H307.3V0.600098H316.4V2.6001ZM298.2 2.6001H289.1V0.600098H298.2V2.6001ZM280 2.6001H270.9V0.600098H280V2.6001ZM261.7 2.6001H252.6V0.600098H261.7V2.6001ZM243.5 2.6001H234.4V0.600098H243.5V2.6001ZM225.3 2.6001H216.2V0.600098H225.3V2.6001ZM207.1 2.6001H198V0.600098H207.1V2.6001ZM188.8 2.6001H179.7V0.600098H188.8V2.6001ZM170.6 2.6001H161.5V0.600098H170.6V2.6001Z" fill="#F3F3E4"/>
<path d="M440.4 6.1001H438.4V2.6001H434.9V0.600098H440.4V6.1001Z" fill="#F3F3E4"/>
<path d="M440.4 245.7H438.4V236.5H440.4V245.7ZM440.4 227.2H438.4V218H440.4V227.2ZM440.4 208.8H438.4V199.6H440.4V208.8ZM440.4 190.4H438.4V181.2H440.4V190.4ZM440.4 172H438.4V162.8H440.4V172ZM440.4 153.5H438.4V144.3H440.4V153.5ZM440.4 135.1H438.4V125.9H440.4V135.1ZM440.4 116.7H438.4V107.5H440.4V116.7ZM440.4 98.2H438.4V89H440.4V98.2ZM440.4 79.8H438.4V70.6H440.4V79.8ZM440.4 61.4001H438.4V52.2001H440.4V61.4001ZM440.4 43H438.4V33.8H440.4V43ZM440.4 24.5H438.4V15.3H440.4V24.5Z" fill="#F3F3E4"/>
<path d="M440.4 260.4H434.9V258.4H438.4V254.9H440.4V260.4Z" fill="#F3F3E4"/>
<path d="M425.9 260.4H416.9V258.4H425.9V260.4ZM407.8 260.4H398.8V258.4H407.8V260.4ZM389.7 260.4H380.7V258.4H389.7V260.4ZM371.7 260.4H362.7V258.4H371.7V260.4ZM353.6 260.4H344.6V258.4H353.6V260.4ZM335.5 260.4H326.5V258.4H335.5V260.4ZM317.5 260.4H308.5V258.4H317.5V260.4ZM299.4 260.4H290.4V258.4H299.4V260.4ZM281.3 260.4H272.3V258.4H281.3V260.4ZM263.3 260.4H254.3V258.4H263.3V260.4ZM245.2 260.4H236.2V258.4H245.2V260.4ZM227.1 260.4H218.1V258.4H227.1V260.4ZM209.1 260.4H200.1V258.4H209.1V260.4ZM191 260.4H182V258.4H191V260.4ZM172.9 260.4H163.9V258.4H172.9V260.4ZM154.9 260.4H145.9V258.4H154.9V260.4ZM136.8 260.4H127.8V258.4H136.8V260.4ZM118.7 260.4H109.7V258.4H118.7V260.4ZM100.7 260.4H91.6996V258.4H100.7V260.4ZM82.5996 260.4H73.5996V258.4H82.5996V260.4Z" fill="#F3F3E4"/>
<path d="M153.9 71L149.7 70.9001V68.9001H151.8V64.1H153.8V71H153.9ZM140.8 70.8001L131.8 70.6V68.6L140.8 68.8001V70.8001ZM122.8 70.5L113.8 70.3001V68.3001L122.8 68.5V70.5ZM104.9 70.2L95.9 70V68L104.9 68.2V70.2ZM86.9 69.9001L77.9 69.7V67.7L86.9 67.9001V69.9001ZM69 69.6L60 69.4001V67.4001L69 67.6V69.6ZM153.9 55.2001H151.9V46.2001H153.9V55.2001ZM153.9 37.3H151.9V28.3H153.9V37.3ZM153.9 19.3H151.9V10.3H153.9V19.3Z" fill="#F3F3E4"/>
<path d="M157.632 133.221L156.291 134.705L194.806 169.493L196.147 168.009L157.632 133.221Z" fill="#F3F3E4"/>
<path d="M194.808 133.161L156.293 167.95L157.634 169.434L196.149 134.646L194.808 133.161Z" fill="#F3F3E4"/>
<path d="M305.03 133.22L303.689 134.704L342.204 169.493L343.545 168.009L305.03 133.22Z" fill="#F3F3E4"/>
<path d="M342.199 133.179L303.674 167.952L305.014 169.437L343.539 134.664L342.199 133.179Z" fill="#F3F3E4"/>
<path d="M147.4 390.9H147.1V388.9H147.4C148.5 388.9 149.1 388.9 149.1 388.9L149.2 390.9C149.3 390.9 148.6 390.9 147.4 390.9ZM138.1 390.6C135.2 390.4 132.2 390.1 129.1 389.7L129.4 387.7C132.4 388.1 135.4 388.4 138.3 388.6L138.1 390.6ZM120.2 388.2C117.3 387.7 114.3 387.1 111.4 386.4L111.8 384.5C114.7 385.2 117.6 385.8 120.6 386.3L120.2 388.2ZM102.6 384.2C99.7 383.4 96.8 382.5 94 381.6L94.6 379.7C97.4 380.6 100.3 381.5 103.2 382.3L102.6 384.2ZM85.4 378.7C82.6 377.6 79.8 376.5 77 375.3L77.8 373.5C80.5 374.7 83.3 375.8 86.1 376.8L85.4 378.7ZM68.8 371.6C66.1 370.3 63.4 368.9 60.8 367.5L61.8 365.7C64.4 367.1 67.1 368.5 69.7 369.8L68.8 371.6ZM53 362.9C50.4 361.3 47.9 359.7 45.4 358.1L46.5 356.4C49 358 51.5 359.7 54 361.2L53 362.9ZM38 352.9C35.6 351.1 33.2 349.3 30.9 347.4L32.2 345.9C34.5 347.8 36.9 349.6 39.3 351.4L38 352.9ZM24 341.5C21.7 339.4 19.5 337.3 17.5 335.2L18.9 333.8C20.9 335.8 23 337.9 25.3 340L24 341.5ZM11.5 328.5C9.5 326 7.8 323.5 6.3 321L8 320C9.4 322.4 11.1 324.8 13.1 327.2L11.5 328.5ZM2.3 312.8C1.2 309.8 0.4 306.8 0 303.9L2 303.6C2.4 306.4 3.1 309.2 4.2 312L2.3 312.8ZM2 295L0 294.7C0.4 291.7 1.3 288.8 2.5 285.9L4.3 286.7C3.2 289.4 2.4 292.2 2 295ZM8.8 279.1L7.2 277.9C8.9 275.6 10.9 273.2 13.1 270.9L14.5 272.3C12.3 274.6 10.4 276.8 8.8 279.1ZM21.1 266.5L19.9 264.9C22.2 263.1 24.6 261.3 27.3 259.6L28.4 261.3C25.7 262.9 23.3 264.7 21.1 266.5ZM35.9 256.6L34.9 254.9C37.5 253.5 40.2 252.1 42.9 250.7L43.8 252.5C41.1 253.8 38.4 255.2 35.9 256.6ZM52 248.9L51.2 247.1C56.3 245 59.6 244 59.7 243.9L60.3 245.8C60.3 245.8 57 246.8 52 248.9Z" fill="#F3F3E4"/>
<path d="M335.2 392.6C331.8 392.5 331.6 392.5 331.6 391.5L332.7 390.5C332.7 390.5 333.6 390.6 335.3 390.6L335.2 392.6ZM344.2 392.6L344.1 390.6C347 390.5 350 390.4 353 390.2L353.1 392.2C350.2 392.4 347.2 392.5 344.2 392.6ZM362.2 391.4L362 389.4C365 389.1 367.9 388.7 370.9 388.3L371.2 390.3C368.2 390.7 365.2 391.1 362.2 391.4ZM380.1 388.7L379.7 386.7C382.6 386.2 385.6 385.5 388.5 384.9L388.9 386.8C386 387.6 383 388.2 380.1 388.7ZM397.6 384.7L397.1 382.8C400 382 402.8 381.2 405.7 380.3L406.3 382.2C403.4 383.1 400.5 383.9 397.6 384.7ZM414.8 379.3L414.1 377.4C416.9 376.4 419.7 375.3 422.4 374.1L423.2 375.9C420.5 377.1 417.7 378.2 414.8 379.3ZM431.5 372.3L430.6 370.5C433.3 369.2 436 367.9 438.6 366.5L439.5 368.3C436.9 369.6 434.2 371 431.5 372.3ZM447.4 363.8L446.4 362.1C448.9 360.6 451.5 359 453.9 357.3L455 359C452.5 360.6 449.9 362.2 447.4 363.8ZM462.3 353.7L461.1 352.1C463.5 350.3 465.8 348.4 468.1 346.5L469.4 348C467.1 350 464.7 351.9 462.3 353.7ZM476.1 342.1L474.7 340.6L475 340.4C477.1 338.4 479.2 336.3 481 334.3L482.5 335.7C480.6 337.7 478.6 339.8 476.4 341.9L476.1 342.1ZM488.4 328.8L486.8 327.6C488.7 325.1 490.4 322.7 491.8 320.3L493.5 321.3C492 323.7 490.3 326.2 488.4 328.8ZM497.5 313L495.6 312.3C496.7 309.5 497.4 306.6 497.9 303.9L499.9 304.2C499.4 307.1 498.6 310.1 497.5 313ZM498 295.2C497.7 292.4 497 289.5 495.9 286.8L497.8 286.1C498.9 289 499.7 292 500 295L498 295.2ZM491.8 279.1C490.2 276.8 488.4 274.5 486.2 272.3L487.6 270.9C489.8 273.2 491.7 275.6 493.4 278L491.8 279.1ZM479.7 266.3C477.5 264.5 475.1 262.8 472.5 261.1L473.6 259.4C476.2 261.1 478.7 262.9 480.9 264.8L479.7 266.3ZM464.9 256.4C462.4 255 459.7 253.6 457 252.3L457.9 250.5C460.7 251.8 463.4 253.2 466 254.6L464.9 256.4ZM448.8 248.8C443.8 246.8 440.4 245.8 440.4 245.8L441 243.9C441.1 243.9 444.5 245 449.6 247L448.8 248.8Z" fill="#F3F3E4"/>
<path d="M159.599 403C158.399 403 157.299 402.9 156.299 402.8L156.599 400.8C157.499 400.9 158.499 401 159.599 401C162.099 401 164.199 400.6 164.199 400.6L164.599 402.6C164.499 402.6 162.299 403 159.599 403ZM148.899 398.4C148.399 397.5 148.199 396.4 148.199 395.2V390.1H150.199V395.2C150.199 396.1 150.399 396.9 150.699 397.5L148.899 398.4ZM150.399 384.3L148.599 383.4C149.499 381.7 151.499 379.6 156.199 379.4L156.299 381.4C153.299 381.5 151.299 382.4 150.399 384.3ZM165.699 381.4H164.199V379.4H165.699V381.4Z" fill="#F3F3E4"/>
<path d="M199.7 414.1H190.7V412.1H197.7V408.6H199.7V414.1ZM182.7 414.1H174.7V412.1H182.7V414.1ZM167.2 410.3C165.9 408.3 165.1 405.6 164.9 402.3L166.9 402.2C167.1 405.2 167.8 407.6 168.9 409.3L167.2 410.3ZM199.7 400.7H197.7V392.7H199.7V400.7ZM166.7 394.2H164.7V386.2H166.7V394.2ZM199.7 384.7H197.7V376.7H199.7V384.7ZM166.7 378.3H164.7V375.4C164.6 375.2 164.6 374.7 164.6 374.1C164.6 373 164.9 371.3 166.5 370L167.8 371.5C167 372.2 166.6 373 166.6 374.1C166.6 374.6 166.7 374.9 166.7 374.9V375.2V378.3ZM198.7 369.8H190.7V367.8H198.7V369.8ZM182.7 369.8H174.7V367.8H182.7V369.8Z" fill="#F3F3E4"/>
<path d="M209.099 419.3H205.699V417.3H207.099V412.7H209.099V419.3ZM199.699 417.3H197.699V409.3H199.699V417.3ZM209.099 404.8H207.099V396.8H209.099V404.8ZM199.699 401.4H197.699V393.4H199.699V401.4ZM209.099 388.8H207.099V380.8H209.099V388.8ZM199.699 385.4H197.699V377.4H199.699V385.4ZM209.099 372.9H207.099V364.9H209.099V372.9ZM199.699 369.5H197.699V363.9H202.099V365.9H199.699V369.5Z" fill="#F3F3E4"/>
<path d="M216.1 384.7H208.1V382.7H216.1V384.7ZM224.1 384.7L224 382.7C227.5 382.6 229.9 381.8 230.4 380.8L232.2 381.6C231.2 384 227.2 384.6 224.1 384.7ZM226.3 377.2C225.1 377 223.5 376.9 221.7 376.9H218.5V374.9H221.7C223.6 374.9 225.3 375 226.6 375.3L226.3 377.2ZM210.6 376.8H208.1V374.8H210.6V376.8Z" fill="#F3F3E4"/>
<path d="M216.1 406.9H208.1V404.9H216.1V406.9ZM224.1 406.9L224 404.9C227.5 404.8 229.9 404 230.4 403L232.2 403.8C231.2 406.2 227.2 406.8 224.1 406.9ZM226.3 399.4C225.1 399.2 223.5 399.1 221.7 399.1H218.5V397.1H221.7C223.6 397.1 225.3 397.2 226.6 397.5L226.3 399.4ZM210.6 399H208.1V397H210.6V399Z" fill="#F3F3E4"/>
<path d="M324.001 403C321.301 403 319.201 402.6 319.101 402.6L319.501 400.6C319.501 400.6 321.601 401 324.101 401C325.201 401 326.201 400.9 327.201 400.8L327.501 402.8C326.301 402.9 325.201 403 324.001 403ZM334.601 398.3L332.801 397.5C333.101 396.9 333.201 396.1 333.201 395.3V390H335.201V395.3C335.201 396.4 335.001 397.4 334.601 398.3ZM333.001 384.2C332.101 382.4 330.101 381.5 327.101 381.4V379.4C330.901 379.5 333.501 380.8 334.801 383.3L333.001 384.2ZM319.101 381.4H317.801V379.4H319.101V381.4Z" fill="#F3F3E4"/>
<path d="M309.099 414.2C308.999 414.2 308.999 414.2 308.899 414.2H301.199V412.2H309.299L309.099 414.2ZM293.199 414.1H284.199V409.2H286.199V412.1H293.199V414.1ZM316.599 410L314.899 409C315.999 407.3 316.599 404.8 316.799 401.8L318.799 401.9C318.599 405.3 317.899 408 316.599 410ZM286.199 401.3H284.199V393.3H286.199V401.3ZM318.899 393.9H316.899V385.9H318.899V393.9ZM286.199 385.3H284.199V377.3H286.199V385.3ZM318.899 378H316.899V375C316.899 375 316.999 374.7 316.999 374.2C316.999 373.1 316.499 372.2 315.599 371.5L316.799 369.9C318.199 371 318.899 372.5 318.899 374.2C318.899 374.8 318.799 375.2 318.799 375.4V378H318.899ZM308.599 369.8H300.599V367.8H308.599V369.8ZM292.699 369.8H285.299V369.4H284.299V367.9H292.699V369.8Z" fill="#F3F3E4"/>
<path d="M278.3 419.3H274.9V412.7H276.9V417.3H278.3V419.3ZM286.2 417.2H284.2V409.2H286.2V417.2ZM276.9 404.8H274.9V396.8H276.9V404.8ZM286.2 401.3H284.2V393.3H286.2V401.3ZM276.9 388.8H274.9V380.8H276.9V388.8ZM286.2 385.3H284.2V377.3H286.2V385.3ZM276.9 372.9H274.9V364.9H276.9V372.9ZM286.2 369.4H284.2V365.9H281.7V363.9H286.2V369.4Z" fill="#F3F3E4"/>
</g>
<defs>
<clipPath id="clip0_830_2433">
<rect width="500" height="419.9" fill="white"/>
</clipPath>
</defs>
</svg>
